REM DIRINDEX 1\2,1\3,1\4,1\5
REM DIRNAME "folder01","folder02","folder03","folder04","folder05"
TITLE ""
FILE "1Q_t_1620-1629.mp3" MP3
  TRACK 01 AUDIO
    TITLE "3:cjc172_5849"
    INDEX 01 00:00:00
  TRACK 02 AUDIO
    TITLE "0:"
    INDEX 01 00:01:12
  TRACK 03 AUDIO
    TITLE "4:cjc172_5850"
    INDEX 01 00:01:22
  TRACK 04 AUDIO
    TITLE "0:"
    INDEX 01 00:03:56
  TRACK 05 AUDIO
    TITLE "5:cjc172_5851"
    INDEX 01 00:03:63
  TRACK 06 AUDIO
    TITLE "0:"
    INDEX 01 00:07:36
  TRACK 07 AUDIO
    TITLE "3:cjc172_5852"
    INDEX 01 00:08:08
  TRACK 08 AUDIO
    TITLE "0:"
    INDEX 01 00:09:23
  TRACK 09 AUDIO
    TITLE "4:cjc172_5853"
    INDEX 01 00:09:33
  TRACK 10 AUDIO
    TITLE "0:"
    INDEX 01 00:12:35
  TRACK 11 AUDIO
    TITLE "5:cjc172_5854"
    INDEX 01 00:12:45
  TRACK 12 AUDIO
    TITLE "0:"
    INDEX 01 00:16:29
  TRACK 13 AUDIO
    TITLE "3:cjc172_5855"
    INDEX 01 00:17:01
  TRACK 14 AUDIO
    TITLE "0:"
    INDEX 01 00:18:16
  TRACK 15 AUDIO
    TITLE "4:cjc172_5856"
    INDEX 01 00:18:28
  TRACK 16 AUDIO
    TITLE "0:"
    INDEX 01 00:20:17
  TRACK 17 AUDIO
    TITLE "5:cjc172_5857"
    INDEX 01 00:20:27
  TRACK 18 AUDIO
    TITLE "0:"
    INDEX 01 00:25:00
  TRACK 19 AUDIO
    TITLE "3:cjc172_5858"
    INDEX 01 00:25:49
  TRACK 20 AUDIO
    TITLE "0:"
    INDEX 01 00:26:66
  TRACK 21 AUDIO
    TITLE "4:cjc172_5859"
    INDEX 01 00:27:01
  TRACK 22 AUDIO
    TITLE "0:"
    INDEX 01 00:29:65
  TRACK 23 AUDIO
    TITLE "5:cjc172_5860"
    INDEX 01 00:29:73
  TRACK 24 AUDIO
    TITLE "0:"
    INDEX 01 00:34:70
  TRACK 25 AUDIO
    TITLE "3:cjc172_5861"
    INDEX 01 00:35:42
  TRACK 26 AUDIO
    TITLE "0:"
    INDEX 01 00:36:61
  TRACK 27 AUDIO
    TITLE "4:cjc172_5862"
    INDEX 01 00:36:73
  TRACK 28 AUDIO
    TITLE "0:"
    INDEX 01 00:38:25
  TRACK 29 AUDIO
    TITLE "5:cjc172_5863"
    INDEX 01 00:38:32
  TRACK 30 AUDIO
    TITLE "0:"
    INDEX 01 00:42:20
  TRACK 31 AUDIO
    TITLE "3:cjc172_5864"
    INDEX 01 00:42:67
  TRACK 32 AUDIO
    TITLE "0:"
    INDEX 01 00:43:71
  TRACK 33 AUDIO
    TITLE "4:cjc172_5865"
    INDEX 01 00:44:06
  TRACK 34 AUDIO
    TITLE "0:"
    INDEX 01 00:47:43
  TRACK 35 AUDIO
    TITLE "5:cjc172_5866"
    INDEX 01 00:47:53
  TRACK 36 AUDIO
    TITLE "0:"
    INDEX 01 00:53:05
  TRACK 37 AUDIO
    TITLE "3:cjc172_5867"
    INDEX 01 00:53:54
  TRACK 38 AUDIO
    TITLE "0:"
    INDEX 01 00:54:57
  TRACK 39 AUDIO
    TITLE "4:cjc172_5868"
    INDEX 01 00:54:67
  TRACK 40 AUDIO
    TITLE "0:"
    INDEX 01 00:56:34
  TRACK 41 AUDIO
    TITLE "5:cjc172_5869"
    INDEX 01 00:56:42
  TRACK 42 AUDIO
    TITLE "0:"
    INDEX 01 01:00:63
  TRACK 43 AUDIO
    TITLE "3:cjc172_5870"
    INDEX 01 01:01:37
  TRACK 44 AUDIO
    TITLE "0:"
    INDEX 01 01:02:51
  TRACK 45 AUDIO
    TITLE "4:cjc172_5871"
    INDEX 01 01:02:62
  TRACK 46 AUDIO
    TITLE "0:"
    INDEX 01 01:04:14
  TRACK 47 AUDIO
    TITLE "5:cjc172_5872"
    INDEX 01 01:04:24
  TRACK 48 AUDIO
    TITLE "0:"
    INDEX 01 01:08:53
  TRACK 49 AUDIO
    TITLE "3:cjc172_5873"
    INDEX 01 01:09:25
  TRACK 50 AUDIO
    TITLE "0:"
    INDEX 01 01:10:32
  TRACK 51 AUDIO
    TITLE "4:cjc172_5874"
    INDEX 01 01:10:44
  TRACK 52 AUDIO
    TITLE "0:"
    INDEX 01 01:12:22
  TRACK 53 AUDIO
    TITLE "5:cjc172_5875"
    INDEX 01 01:12:31
  TRACK 54 AUDIO
    TITLE "0:"
    INDEX 01 01:17:42
  TRACK 55 AUDIO
    TITLE "3:cjc172_5876"
    INDEX 01 01:18:12
  TRACK 56 AUDIO
    TITLE "0:"
    INDEX 01 01:19:12
  TRACK 57 AUDIO
    TITLE "4:cjc172_5877"
    INDEX 01 01:19:22
  TRACK 58 AUDIO
    TITLE "0:"
    INDEX 01 01:20:64
  TRACK 59 AUDIO
    TITLE "5:cjc172_5878"
    INDEX 01 01:20:72
  TRACK 60 AUDIO
    TITLE "0:"
    INDEX 01 01:25:16
